<?xml version="1.0"?>
<svg width="198.7" height="198.7" xmlns="http://www.w3.org/2000/svg" xmlns:svg="http://www.w3.org/2000/svg" xmlns:xlink="http://www.w3.org/1999/xlink">
 <defs>
  <linearGradient id="linear-gradient" x1="0" x2="1" y1="0.5" y2="0.5">
   <stop offset="0" stop-color="#60b932"/>
   <stop offset="0.28" stop-color="#60b932"/>
   <stop offset="1" stop-color="#367c34"/>
  </linearGradient>
  <linearGradient gradientTransform="matrix(27.2148 0 0 -27.2148 -785.193 13061.629)" id="linear-gradient-2" x1="30.81" x2="32.05" xlink:href="#linear-gradient" y1="476.94" y2="476.94"/>
  <linearGradient gradientTransform="matrix(25.74947 0 0 -25.74947 -733.989 12385.194)" id="linear-gradient-3" x1="30.64" x2="31.88" xlink:href="#linear-gradient" y1="476.02" y2="476.02"/>
  <linearGradient gradientTransform="matrix(27.09707 0 0 -27.09707 -780.482 13049.4)" id="linear-gradient-4" x1="30.8" x2="32.04" xlink:href="#linear-gradient" y1="476.5" y2="476.5"/>
  <linearGradient gradientTransform="matrix(24.40187 0 0 -24.40187 -687.495 11720.986)" id="linear-gradient-5" x1="30.46" x2="31.7" xlink:href="#linear-gradient" y1="475.5" y2="475.5"/>
  <linearGradient id="linear-gradient-6" x1="0.01" x2="0.93" y1="0.99" y2="0.1">
   <stop offset="0" stop-color="#4596d8"/>
   <stop offset="0.2" stop-color="#4596d8"/>
   <stop offset="1" stop-color="#fff"/>
  </linearGradient>
  <linearGradient id="linear-gradient-7" x1="0" x2="1.05" y1="0.05" y2="0.68">
   <stop offset="0" stop-color="#4194d7"/>
   <stop offset="0.2" stop-color="#4194d7"/>
   <stop offset="1" stop-color="#fff"/>
  </linearGradient>
  <linearGradient id="linear-gradient-8" x1="0" x2="1" y1="1.02" y2="0.41">
   <stop offset="0" stop-color="#4194d7"/>
   <stop offset="0.33" stop-color="#4496d8"/>
   <stop offset="1" stop-color="#fff"/>
  </linearGradient>
  <clipPath id="clip-path">
   <path class="cls-1" d="m88.07,152.07l-34.25,-15.09l-1.91,21.55l37.66,11.97l-1.5,-18.43z" id="svg_1"/>
  </clipPath>
  <clipPath id="clip-path-2">
   <path class="cls-1" d="m60.52,68.69l19.24,0l0,16.41l-4.57,0l0,-7.01a5.05,5.05 0 1 0 -10.1,0l0,7.01l-4.57,0l0,-16.41zm-3.84,35.94l28.54,12.57l-1.97,-24.06l3.73,0l0,-8.04l-2.77,0l0,-16.41l2.77,0l0,-4.72l-15.39,-15.06l0,-1.06a1.45,1.45 0 0 0 -2.9,0l0,1.06l-15.39,15.06l0,4.72l2.77,0l0,16.41l-2.77,0l0,8.04l4.4,0l-1.02,11.49z" id="svg_2"/>
  </clipPath>
  <clipPath id="clip-path-3">
   <path class="cls-1" d="m55.01,123.52l31.87,14.04l-0.48,-5.85l-30.91,-13.62l-0.48,5.43z" id="svg_3"/>
  </clipPath>
  <clipPath id="clip-path-4">
   <path class="cls-1" d="m54.17,132.96l33.54,14.78l-0.47,-5.85l-32.59,-14.36l-0.48,5.43z" id="svg_4"/>
  </clipPath>
  <clipPath id="clip-path-5">
   <path class="cls-1" d="m56.33,108.65l-0.49,5.42l30.21,13.31l-0.48,-5.85l-29.24,-12.88z" id="svg_5"/>
  </clipPath>
  <clipPath id="clip-path-6">
   <path class="cls-1" d="m157.28,34.87a87.46,87.46 0 0 0 -14.85,-14.04a89.61,89.61 0 0 0 -2.39,-1.7l-11.25,11.7l-41.08,42.72l56.57,-29.27l14.5,-7.51c-0.5,-0.63 -0.99,-1.28 -1.5,-1.9z" id="svg_6"/>
  </clipPath>
  <clipPath id="clip-path-7">
   <path class="cls-1" d="m177.46,89.75c-0.01,-0.99 -0.07,-1.97 -0.11,-2.95l-16.07,-1.16l-73.57,-5.28l72.18,25.05l15.17,5.26c0.04,-0.18 0.09,-0.36 0.14,-0.54a86.63,86.63 0 0 0 2.28,-19.69c0,-0.23 -0.02,-0.46 -0.02,-0.69z" id="svg_7"/>
  </clipPath>
  <clipPath id="clip-path-8">
   <path class="cls-1" d="m175.09,70.3a86.08,86.08 0 0 0 -6.9,-18.81l-15.43,4.96l-63.93,20.54l70.83,-2.41l16.21,-0.55c-0.24,-1.25 -0.48,-2.5 -0.78,-3.73z" id="svg_8"/>
  </clipPath>
  <style>.cls-1{fill:none}.cls-3{fill:#696566}</style>
 </defs>
 <g class="layer">
  <title>Layer 1</title>
  <g id="g10" transform="translate(4.00682 3.74421) matrix(1 0 0 1 -4.00682 -3.74421)">
   <g id="g12">
    <path d="m16.47,90.44a74.27,74.27 0 1 1 74.27,74.27a74.27,74.27 0 0 1 -74.27,-74.27" fill="#fff" id="path14"/>
    <g clip-path="url(#clip-path)" id="g30">
     <g id="g32">
      <path d="m88.07,152.07l-34.25,-15.09l-1.91,21.55l37.66,11.97l-1.5,-18.43" fill="url(#linear-gradient)" id="path46"/>
     </g>
    </g>
    <g clip-path="url(#clip-path-2)" id="g48">
     <g id="g50">
      <path d="m60.52,68.69l19.24,0l0,16.41l-4.57,0l0,-7.01a5.05,5.05 0 1 0 -10.1,0l0,7.01l-4.57,0l0,-16.41zm-3.84,35.94l28.54,12.57l-1.97,-24.06l3.73,0l0,-8.04l-2.77,0l0,-16.41l2.77,0l0,-4.72l-15.39,-15.06l0,-1.06a1.45,1.45 0 0 0 -2.9,0l0,1.06l-15.39,15.06l0,4.72l2.77,0l0,16.41l-2.77,0l0,8.04l4.4,0l-1.02,11.49" fill="url(#linear-gradient-2)" id="path64"/>
     </g>
    </g>
    <g clip-path="url(#clip-path-3)" id="g66">
     <g id="g68">
      <path d="m55.01,123.52l31.87,14.04l-0.48,-5.85l-30.91,-13.62l-0.48,5.42" fill="url(#linear-gradient-3)" id="path82"/>
     </g>
    </g>
    <g clip-path="url(#clip-path-4)" id="g84">
     <g id="g86">
      <path d="m54.17,132.96l33.54,14.78l-0.47,-5.85l-32.59,-14.36l-0.48,5.43" fill="url(#linear-gradient-4)" id="path100"/>
     </g>
    </g>
    <g clip-path="url(#clip-path-5)" id="g102">
     <g id="g104">
      <path d="m56.33,108.65l-0.48,5.42l30.2,13.31l-0.48,-5.85l-29.24,-12.88" fill="url(#linear-gradient-5)" id="path118"/>
     </g>
    </g>
    <path class="cls-3" d="m152.76,56.45l15.43,-4.96c-0.05,-0.11 -0.1,-0.22 -0.16,-0.33a87.01,87.01 0 0 0 -9.25,-14.39l-14.5,7.51a71.2,71.2 0 0 1 8.34,11.91c0.05,0.08 0.09,0.17 0.14,0.26" id="path120"/>
    <path class="cls-3" d="m161.28,85.64l16.07,1.16a86.24,86.24 0 0 0 -1.48,-12.77l-16.21,0.55a70.33,70.33 0 0 1 1.62,11.07" id="path122"/>
    <path class="cls-3" d="m90.74,161.19a70.75,70.75 0 1 1 38.05,-130.36l11.25,-11.7a86.72,86.72 0 1 0 35.02,91.54l-15.18,-5.27a70.87,70.87 0 0 1 -69.14,55.79" id="path124"/>
    <g clip-path="url(#clip-path-6)" id="g126">
     <g id="g128">
      <path d="m157.28,34.87a87.46,87.46 0 0 0 -14.85,-14.04a89.61,89.61 0 0 0 -2.39,-1.7l-11.25,11.7l-41.08,42.72l56.57,-29.27l14.5,-7.51c-0.5,-0.63 -0.99,-1.28 -1.5,-1.9" fill="url(#linear-gradient-6)" id="path142"/>
     </g>
    </g>
    <g clip-path="url(#clip-path-7)" id="g144">
     <g id="g146">
      <path d="m177.46,89.75c-0.01,-0.99 -0.07,-1.97 -0.11,-2.95l-16.07,-1.16l-73.57,-5.28l72.18,25.05l15.17,5.26c0.04,-0.18 0.09,-0.36 0.14,-0.54a86.63,86.63 0 0 0 2.28,-19.69c0,-0.23 -0.02,-0.46 -0.02,-0.69" fill="url(#linear-gradient-7)" id="path160"/>
     </g>
    </g>
    <g clip-path="url(#clip-path-8)" id="g162">
     <g id="g164">
      <path d="m175.09,70.3a86.08,86.08 0 0 0 -6.9,-18.81l-15.43,4.96l-63.93,20.54l70.83,-2.41l16.21,-0.55c-0.24,-1.25 -0.48,-2.5 -0.78,-3.73" fill="url(#linear-gradient-8)" id="path178"/>
     </g>
    </g>
   </g>
  </g>
 </g>
</svg>