<?xml version="1.0"?>
<svg width="600" height="600" viewBox="0 0 600 600" preserveAspectRatio="xMidYMid meet" xmlns="http://www.w3.org/2000/svg" xmlns:svg="http://www.w3.org/2000/svg" xmlns:xlink="http://www.w3.org/1999/xlink" version="1.0" xml:space="preserve">
 <style type="text/css">
  .st0{fill:#4279F4;}
  .st1{fill:#0028AA;}
  .st2{fill:#014BD1;}
  .st3{fill:#BEDCFF;}
  .st4{fill:#6CA1FF;}
  .st5{fill:#A1C3FF;}
  .st6{clip-path:url(#SVGID_00000151505652981712344040000015851399941536428971_);fill:none;stroke:#4279F4;stroke-width:5.3126;stroke-miterlimit:10;}
  .st7{clip-path:url(#SVGID_00000140732803956877361720000005913103859438536860_);fill:none;stroke:#0028AA;stroke-width:5.3126;stroke-miterlimit:10;}
 </style>
 <defs>
  <symbol id="svg_27" viewBox="0 0 646 854">
   <path d="m140.63,0.24c-7.97,1.29 -17.53,5.46 -24.28,10.61c-20.41,15.5 -36.22,48.42 -42.91,89.43c-2.51,15.51 -4.23,37.03 -4.23,53.46c0,19.37 2.27,44.13 5.52,61.24c0.74,3.8 1.1,7.17 0.8,7.42c-0.25,0.24 -3.25,2.69 -6.62,5.39c-11.53,9.19 -24.71,23.36 -33.78,36.29c-17.41,24.7 -28.69,52.78 -33.41,83.18c-1.84,12.02 -2.33,36.3 -0.86,48.31c3.25,27.71 11.59,51.12 25.87,72.58l4.66,6.93l-1.35,2.27c-9.56,16.06 -17.71,39.29 -21.51,61.6c-3.01,17.66 -3.38,22.38 -3.38,46.04c0,23.85 0.31,28.57 3.13,45.06c3.37,19.74 10.24,40.64 17.9,54.56c2.51,4.53 8.64,13.97 9.38,14.46c0.24,0.12 -0.49,2.39 -1.66,5.03c-8.82,19.31 -16.36,44.99 -19.49,66.63c-2.21,14.84 -2.51,19.62 -2.51,35.25c0,19.92 1.1,29.61 5.27,45.49l0.61,2.32l26.24,0l26.3,0l-1.72,-3.24c-10.6,-19.62 -11.59,-56.03 -2.45,-92.38c4.17,-16.8 8.89,-29.12 17.71,-46.1l5.28,-10.3l0,-6.31c0,-5.89 -0.13,-6.56 -2.03,-10.43c-1.47,-2.94 -3.43,-5.45 -6.92,-8.89c-5.95,-5.76 -10.24,-11.83 -13.67,-19.3c-15.08,-32.74 -18.03,-81.35 -7.42,-122.79c4.41,-17.29 11.71,-32.67 19.37,-41.07c5.21,-5.77 7.91,-12.2 7.91,-18.88c0,-6.93 -2.45,-12.63 -7.97,-18.58c-15.82,-16.92 -25.56,-37.51 -29.06,-61.48c-4.96,-34.15 4.05,-71.36 24.52,-100.84c20.05,-28.94 48.19,-47.51 79.63,-52.48c7.05,-1.16 20.23,-0.98 27.59,0.37c8.03,1.41 13.06,0.98 18.2,-1.47c6.38,-3 9.57,-6.74 13.31,-15.33c3.31,-7.66 5.88,-11.83 12.81,-20.47c8.34,-10.36 16.37,-17.41 29.24,-25.93c14.71,-9.62 31.45,-16.61 48.12,-19.98c6.07,-1.23 8.89,-1.41 20.23,-1.41c11.34,0 14.16,0.18 20.23,1.41c24.46,4.96 48.73,17.59 68.1,35.49c4.17,3.86 14.17,16.24 17.35,21.39c1.23,2.03 3.38,6.32 4.72,9.5c3.74,8.59 6.93,12.33 13.3,15.33c4.97,2.39 10.18,2.88 17.91,1.59c12.19,-2.08 21.57,-1.9 33.53,0.56c40.7,8.21 76.13,41.74 91.83,86.68c13.67,39.41 9.8,80.67 -10.55,112.18c-3.43,5.33 -6.86,9.62 -11.83,14.89c-10.73,11.47 -10.73,25.69 -0.06,37.46c17.53,19.18 28.5,66.39 25.19,108.01c-2.2,27.46 -9.25,52.04 -18.94,65.96c-1.71,2.45 -5.27,6.62 -7.97,9.19c-3.49,3.44 -5.45,5.95 -6.92,8.89c-1.9,3.87 -2.03,4.54 -2.03,10.43l0,6.31l5.27,10.3c8.83,16.98 13.55,29.3 17.72,46.1c9.01,35.86 8.22,71.53 -2.08,91.83c-0.86,1.71 -1.6,3.3 -1.6,3.49c0,0.18 11.71,0.3 26.06,0.3l25.99,0l0.67,-2.63c0.37,-1.41 0.98,-3.56 1.29,-4.78c0.67,-2.7 2.02,-10.67 3.13,-18.33c1.04,-7.72 1.04,-36.17 0,-44.75c-3.93,-31.14 -10.49,-55.85 -21.21,-79.2c-1.17,-2.64 -1.9,-4.91 -1.66,-5.03c0.31,-0.18 2.02,-2.63 3.86,-5.39c13.37,-20.23 21.58,-45.67 25.75,-79.27c1.1,-9.25 1.1,-49.04 0,-57.92c-2.94,-22.93 -6.5,-38.5 -12.38,-54.26c-2.46,-6.55 -8.95,-20.41 -11.71,-24.88l-1.35,-2.27l4.66,-6.93c14.28,-21.46 22.62,-44.87 25.87,-72.58c1.47,-12.01 0.98,-36.29 -0.86,-48.31c-4.78,-30.46 -16,-58.41 -33.41,-83.18c-9.07,-12.93 -22.25,-27.1 -33.78,-36.29c-3.37,-2.7 -6.37,-5.15 -6.62,-5.39c-0.3,-0.25 0.06,-3.62 0.8,-7.42c7.42,-38.68 7.17,-86.93 -0.61,-124.63c-6.75,-32.85 -19.01,-58.97 -34.82,-74.05c-12.63,-12.01 -25.5,-17.16 -40.95,-16.18c-35.43,2.08 -64,42.85 -75.28,107.09c-1.84,10.36 -3.43,22.5 -3.43,25.81c0,1.29 -0.25,2.33 -0.55,2.33c-0.31,0 -2.7,-1.23 -5.28,-2.76c-27.34,-16.18 -57.74,-24.83 -87.35,-24.83c-29.61,0 -60.01,8.65 -87.35,24.83c-2.58,1.53 -4.97,2.76 -5.28,2.76c-0.3,0 -0.55,-1.04 -0.55,-2.33c0,-3.43 -1.65,-15.94 -3.43,-25.81c-10.24,-57.68 -33.72,-95.87 -64.92,-105.5c-4.29,-1.29 -16.49,-2.14 -20.84,-1.47zm10.42,49.9c8.83,6.99 18.64,26.97 24.28,49.35c1.04,4.04 2.14,8.7 2.45,10.42c0.24,1.65 0.92,5.39 1.47,8.27c2.39,13 3.49,27.04 3.62,44.14l0.06,16.86l-4.23,6.25l-4.23,6.31l-9.87,0c-11.53,0 -22.99,1.48 -33.96,4.42c-3.93,0.98 -7.73,1.96 -8.46,2.14c-1.17,0.25 -1.35,-0.12 -2.02,-5.15c-3.62,-27.27 -3.44,-57.5 0.55,-82.63c4.41,-28.01 14.71,-53.39 24.76,-60.87c2.39,-1.78 2.82,-1.72 5.58,0.49zm349.54,-0.43c6.07,4.47 12.75,16.37 17.71,31.57c10,30.41 12.82,72.15 7.55,111.87c-0.68,5.03 -0.86,5.4 -2.03,5.15c-0.73,-0.18 -4.53,-1.16 -8.46,-2.14c-10.97,-2.94 -22.43,-4.42 -33.96,-4.42l-9.87,0l-4.23,-6.31l-4.23,-6.25l0.06,-16.86c0.13,-23.79 2.33,-42.36 7.61,-63.02c5.57,-22.19 15.44,-42.17 24.21,-49.16c2.76,-2.21 3.19,-2.27 5.64,-0.43z" fill="black"/>
   <path d="m313.5,358.24c-13.31,1.28 -16.92,1.77 -23.3,3.06c-10.36,2.15 -24.21,6.93 -33.83,11.65c-33.47,16.37 -56.52,43.65 -63.57,75.22c-1.41,6.25 -1.6,8.33 -1.6,18.88c0,10.42 0.19,12.69 1.54,18.63c9.37,41.26 47.38,71.72 96.54,77.3c10.67,1.17 56.77,1.17 67.43,0c39.48,-4.47 73.44,-25.87 88.71,-55.9c4.04,-8.03 6.01,-13.25 7.84,-21.4c1.35,-5.94 1.54,-8.21 1.54,-18.63c0,-10.55 -0.19,-12.63 -1.6,-18.88c-10.24,-45.86 -54.74,-81.96 -109.3,-88.83c-7.11,-0.86 -25.74,-1.59 -30.4,-1.1zm22.92,33.34c18.21,1.97 36.54,8.47 51.25,18.27c7.91,5.28 19.07,16.31 23.85,23.54c5.88,8.95 9.25,18.09 10.79,29.18c0.67,5.09 0.3,8.95 -1.54,17.17c-2.88,12.26 -11.83,25.07 -23.9,34.02c-5.64,4.11 -17.35,10.05 -24.52,12.38c-13.61,4.35 -22.5,5.15 -54.25,4.9c-20.72,-0.18 -24.4,-0.36 -30.35,-1.47c-20.29,-3.8 -36.35,-11.89 -48,-24.21c-9.44,-9.93 -13.73,-19 -16.06,-33.65c-1.04,-6.81 0.92,-18.09 4.91,-27.59c4.84,-11.59 17.34,-25.99 29.73,-34.27c14.34,-9.56 33.22,-16.36 50.57,-18.2c6.68,-0.74 20.84,-0.74 27.52,-0.07z" fill="black"/>
   <path d="m299.58,436.34c-4.65,2.51 -7.9,8.88 -6.92,13.6c1.1,5.09 5.58,10.24 12.56,14.47c3.74,2.27 3.99,2.58 4.17,4.84c0.12,1.35 -0.37,5.21 -1.04,8.65c-0.74,3.37 -1.29,6.92 -1.29,7.91c0.06,2.63 2.52,6.92 5.09,9.01c2.27,1.84 2.7,1.9 9.07,2.08c5.83,0.18 7.05,0.06 9.38,-1.04c6.01,-2.94 7.54,-8.34 5.34,-18.7c-1.84,-8.64 -1.48,-9.99 3.12,-12.63c4.84,-2.82 9.99,-7.78 11.53,-11.15c2.94,-6.44 0.24,-13.73 -6.26,-17.11c-1.59,-0.79 -3.55,-1.16 -6.43,-1.16c-4.48,0 -7.36,1.04 -12.63,4.41l-3.01,1.9l-1.89,-1.16c-7.79,-4.6 -9.2,-5.15 -13.92,-5.09c-3.37,0 -5.21,0.31 -6.87,1.17z" fill="black"/>
   <path d="m150.74,365.17c-10.85,3.43 -18.94,11.4 -23.11,22.74c-2.02,5.39 -3,13.91 -2.14,18.51c2.02,10.97 11.03,20.97 21.27,23.72c12.87,3.38 22.5,1.17 31.02,-7.29c4.96,-4.84 7.66,-9.07 10.36,-15.94c1.96,-4.84 2.08,-5.7 2.08,-12.56l0.06,-7.36l-2.57,-5.27c-4.11,-8.34 -11.53,-14.53 -20.11,-16.8c-4.84,-1.23 -12.63,-1.16 -16.86,0.25z" fill="black"/>
   <path d="m478.15,364.98c-8.4,2.27 -15.87,8.52 -19.86,16.74l-2.57,5.27l0.06,7.36c0,6.86 0.12,7.72 2.08,12.56c2.7,6.87 5.4,11.1 10.36,15.94c8.52,8.46 18.15,10.67 31.02,7.29c7.42,-1.96 14.84,-8.21 18.39,-15.51c3.07,-6.19 3.8,-10.66 2.82,-17.71c-2.27,-16.12 -11.71,-27.83 -25.75,-31.94c-4.1,-1.22 -12.07,-1.22 -16.55,0z" fill="black"/>
  </symbol>
 </defs>
 <g class="layer" transform="translate(0, 75)">
  <title>Layer 1</title>
  <use id="svg_28" transform="matrix(0.697109 0 0 0.697109 1.97769 1.97533)" x="103.28" xlink:href="#svg_27" y="1.43"/>
 </g>
</svg>