<?xml version="1.0" encoding="UTF-8" standalone="no"?>
<svg
   version="1.1"
   id="Layer_1"
   viewBox="0 0 136 136"
   xml:space="preserve"
   xmlns="http://www.w3.org/2000/svg"
   xmlns:svg="http://www.w3.org/2000/svg">
<style
   type="text/css"
   id="style148">
	.st0{fill:#384745;}
	.st1{fill:#2E68E9;}
</style>
<g
   id="g168"
   transform="translate(0,18)">
			<circle
   class="st1"
   cx="34.908058"
   cy="76.394211"
   r="7"
   id="circle158" />
			<path
   class="st1"
   d="m 71.458618,58.681824 c -0.209182,0 -0.416992,-0.01081 -0.623092,-0.0294 1.803489,3.899177 2.958931,8.156898 3.306198,12.639991 H 89.1073 c 2.133667,-3.763054 5.618973,-6.660682 9.793503,-8.029022 V 58.680115 H 71.487328 c -0.0094,4.2e-5 -0.01914,0.0017 -0.02871,0.0017 z"
   id="path160" />
			<path
   class="st1"
   d="m 42.107155,27.74408 v 9.646404 c 8.244308,1.112423 15.636864,4.93811 21.249168,10.549305 L 58.468285,27.74408 Z"
   id="path162" />
			<circle
   class="st1"
   cx="104.33828"
   cy="79.894211"
   r="3.5"
   id="circle164" />
			<path
   class="st1"
   d="M 121.58689,0 H 14.392383 C 6.4765382,0 0,6.4766235 0,14.392469 v 82.577438 c 0,7.915843 6.4765382,14.392473 14.392383,14.392473 H 121.58689 c 7.91584,0 14.39239,-6.47663 14.39239,-14.392473 V 14.392469 C 135.97928,6.4766235 129.50273,0 121.58689,0 Z M 34.908058,97.394211 c -11.579395,0 -21.000002,-9.420563 -21.000002,-21 0,-11.579438 9.420607,-21.000004 21.000002,-21.000004 11.579395,0 21,9.420567 21,21.000004 0,11.579437 -9.420608,21 -21,21 z m 69.430222,0 c -7.766137,0 -14.363159,-5.086579 -16.644143,-12.101792 H 67.257935 c -3.862988,0 -6.995217,-3.12915 -7,-6.991798 l -0.0048,-4.108055 c 0,-12.765087 -10.378323,-23.14341 -23.134865,-23.14341 H 25.608618 c -3.865723,0 -7,-3.133934 -7,-7 0,-3.866066 3.134277,-7 7,-7 h 2.498535 V 27.74408 h -2.498535 c -3.865723,0 -7,-3.133936 -7,-7 0,-3.866064 3.134277,-7 7,-7 h 38.367386 c 3.23135,0 6.042965,2.212109 6.803806,5.353222 l 6.192337,25.582813 h 26.415083 c 5.2459,0 9.51357,4.267677 9.51357,9.513573 v 10.446891 c 5.32862,3.003113 8.93748,8.713303 8.93748,15.253632 0,9.649521 -7.85039,17.5 -17.5,17.5 z"
   id="path166" />
		</g>
</svg>