<?xml version="1.0"?>
<svg width="323" height="223" xmlns="http://www.w3.org/2000/svg" xmlns:svg="http://www.w3.org/2000/svg">
 <!-- Created with SVG-edit - https://github.com/SVG-Edit/svgedit-->
 <defs>undefinedundefined</defs>
 <g class="layer">
  <title>Layer 1</title>
  <g clip-path="url(#clip0_823_291)" id="svg_1" transform="translate(-200 -46) translate(198.45 -2.81)">
   <g clip-path="url(#clip1_823_291)" id="svg_2">
    <path d="m286.06,219.8c-13.93,18.83 -35.24,31.39 -59.29,33.23c-0.75,0.05 -1.5,0.1 -2.26,0.15c-28.2,1.4 -49.51,-11.47 -63.64,-23.41c-24.99,-13.24 -44.56,-16.57 -56,-19.45c-8.32,-2.1 -15.6,-6.29 -18.72,-8.39c-2.77,-1.64 -8.34,-5.46 -12.49,-12.57c-4.65,-7.98 -4.92,-15.59 -4.85,-18.83c2.43,-0.33 5.56,-0.68 9.22,-0.91c3,-0.19 5.9,-0.27 9.16,-0.28c25.25,-0.03 44.84,1.21 59.1,7.54c7.71,3.41 14.85,7.96 21.22,13.51c8.19,7.14 24.93,18.44 45.55,14.58c2.63,-0.49 5.15,-1.14 7.57,-1.94c7.43,-1.06 20.13,-1.92 35.09,2.05c14.2,3.77 24.41,10.29 30.34,14.72z" fill="#0A60B5" id="svg_3" stroke="black" stroke-miterlimit="10" stroke-width="8"/>
    <path d="m284.2,90.12c-6.27,-8.13 -13.9,-15.82 -22.91,-21.06c-9.6,-5.59 -21.85,-10.4 -36.66,-11.7c-36.2,-3.19 -60.95,16.89 -65.46,20.69c-5.61,5.26 -28.05,23.89 -55.06,34.23c-4.71,1.68 -13.77,5.64 -21.82,14.49c-6.37,6.99 -9.49,14.15 -11.02,18.59c3.22,0.45 6.55,0.77 9.98,0.97c26.19,1.45 48.69,1.6 63.42,-5.61c9.72,-4.76 18.25,-11.53 25.61,-19.47c13.25,-14.3 32.59,-20.69 50.19,-16.31c8.08,1.13 22.16,1.99 38.44,-3c11.24,-3.44 19.62,-7.78 25.29,-11.82z" fill="#0A60B5" id="svg_4" stroke="black" stroke-miterlimit="10" stroke-width="8"/>
    <path d="m38.56,96.15c-10.04,-5.16 -17.88,-11.11 -23.22,-15.77c-2.99,-2.61 -7.64,-0.47 -7.64,3.51l0,32.56c0,1.42 0.64,2.77 1.74,3.64l13.34,12.84c0.7,-5.16 2.21,-12.18 5.61,-19.94c3.19,-7.32 7.03,-12.92 10.17,-16.84z" fill="#0A60B5" id="svg_5" stroke="black" stroke-miterlimit="10" stroke-width="8"/>
    <path d="m253.34,168.82c1.53,-4.7 2.38,-9.63 2.5,-14.66c0.11,-3.97 -0.35,-5.46 -1.04,-9.3c7.1,-1.2 15.96,-3.14 24.04,-5.23c8.55,-2.21 14.86,-4.77 21.96,-7.32c1.03,4.97 2.12,7.38 2.5,11.06c0.35,3.47 0.57,7.07 0.64,10.79c0.19,11.56 -1.23,22.04 -3.4,31.23c-6.69,-3.47 -14.64,-7.07 -23.79,-10.22c-8.51,-2.95 -16.42,-4.96 -23.41,-6.35z" fill="#0A60B5" id="svg_6" stroke="black" stroke-miterlimit="10" stroke-width="8"/>
    <path d="m15.03,237.58c-3.07,2.22 -7.33,0.03 -7.33,-3.78l0,-39.99c0,-1.21 0.47,-2.36 1.28,-3.22c0.4,-0.42 0.77,-0.66 0.94,-0.76l13.21,-5.67c0.97,5.3 2.58,11.64 5.26,18.55c3.13,8.07 6.85,14.62 10.17,19.59c-7.85,5.1 -15.7,10.19 -23.54,15.28l0.01,0z" fill="#0A60B5" id="svg_7" stroke="black" stroke-miterlimit="10" stroke-width="8"/>
    <path clip-rule="evenodd" d="m100.14,62.85c26.43,-1.31 46.2,9.76 56.39,17.16c-7.72,6.81 -28.59,23.25 -53.28,32.75c-1.66,0.59 -3.87,1.47 -6.39,2.76c-17.86,8.8 -28.48,26.33 -28.96,45.06c-0.07,3.16 0.09,6.3 0.5,9.39c-0.04,0 -0.09,0.01 -0.13,0.01c-0.07,3.21 0.2,10.77 4.84,18.69c4.15,7.06 9.71,10.84 12.48,12.47c1.37,0.92 3.55,2.24 6.27,3.6c3.19,1.7 6.73,3.13 10.63,4.23c0.6,0.18 1.2,0.34 1.82,0.49c1.42,0.36 2.96,0.72 4.63,1.12c11.78,2.8 29.63,7.03 51.51,18.53c2.21,1.86 4.59,3.73 7.15,5.55c-0.78,0.7 -1.43,1.31 -1.96,1.8c-4.51,3.82 -29.28,24 -65.5,20.8c-14.83,-1.31 -27.1,-6.15 -36.7,-11.76c-16.16,-9.45 -28.38,-24.4 -35.04,-41.9c-4.3,-11.28 -8.04,-25.87 -8.31,-43.04c-0.24,-14.66 2.11,-27.57 5.31,-38.28c9.81,-32.72 38.4,-56.72 72.48,-59.28l0,0c0.75,-0.06 1.5,-0.11 2.26,-0.15zm185.14,155.95c-5.93,-4.4 -16.11,-10.82 -30.21,-14.54c-14.96,-3.94 -27.65,-3.08 -35.07,-2.02c-2.43,0.79 -4.94,1.43 -7.56,1.92c-20.62,3.83 -37.35,-7.38 -45.53,-14.47c-1.59,-1.38 -3.23,-2.69 -4.92,-3.94c5.51,-4.84 11.56,-9.02 18.16,-12.26c14.74,-7.24 37.26,-7.09 63.47,-5.64c36.12,2.02 61.07,19.23 71.03,27.13c1.11,0.88 1.75,2.21 1.75,3.63l0,32.47c0,3.98 -4.67,6.11 -7.67,3.5c-5.39,-4.66 -13.3,-10.62 -23.45,-15.79l0,0.01zm-115.81,-97.03c-2.36,2.57 -4.85,5.01 -7.47,7.31c5.06,3.75 10.53,6.93 16.31,9.47c14.25,6.28 33.83,7.51 59.07,7.48c37.02,-0.05 64.29,-14 76.8,-21.59c1.38,-0.84 2.22,-2.34 2.22,-3.96l0,-39.85c0,-3.8 -4.28,-5.98 -7.36,-3.76c-7.29,5.24 -18.12,11.93 -32.09,17.2c-5.03,2.96 -11.3,5.99 -18.77,8.29c-16.3,5.01 -30.39,4.15 -38.47,3.02c-17.62,-4.4 -36.97,2.01 -50.24,16.39z" fill="#E11312" fill-rule="evenodd" id="svg_8"/>
    <path d="m156.53,80.01l2.64,3l3.74,-3.31l-4.03,-2.93l-2.35,3.24zm-56.39,-17.16l-0.2,-4l-0.01,0.01l-0.01,0l0.22,3.99zm3.11,49.91l1.35,3.76l0.05,-0.01l0.04,-0.02l-1.44,-3.73zm-6.39,2.76l1.77,3.59l0.03,-0.01l0.02,-0.02l-1.82,-3.56zm-28.96,45.06l-3.99,-0.1l0,0l3.99,0.1zm0.5,9.39l0.53,3.96l3.97,-0.52l-0.53,-3.98l-3.97,0.54zm-0.13,0.01l-0.53,-3.96l-3.39,0.45l-0.08,3.42l4,0.09zm4.84,18.69l-3.45,2.02l0,0l3.45,-2.02zm12.48,12.47l2.22,-3.33l-0.09,-0.06l-0.1,-0.05l-2.03,3.44zm6.27,3.6l1.88,-3.53l-0.04,-0.02l-0.05,-0.02l-1.79,3.57zm10.63,4.23l1.12,-3.84l-0.02,0l-0.01,-0.01l-1.09,3.85zm1.82,0.49l-0.98,3.88l0,0l0.98,-3.88zm4.63,1.12l0.93,-3.89l0,0l-0.93,3.89zm51.51,18.53l2.57,-3.06l-0.33,-0.28l-0.38,-0.2l-1.86,3.54zm7.15,5.55l2.66,2.99l3.72,-3.33l-4.06,-2.91l-2.32,3.25zm-1.96,1.8l2.58,3.06l0.09,-0.07l0.07,-0.08l-2.74,-2.91zm-65.5,20.8l0.35,-3.99l0,0l-0.35,3.99zm-36.7,-11.76l2.02,-3.45l0,-0.01l-2.02,3.46zm-35.04,-41.9l-3.74,1.42l0,0l3.74,-1.42zm-8.31,-43.04l4,-0.06l0,0l-4,0.06zm5.31,-38.28l-3.83,-1.15l0,0.01l3.83,1.14zm72.48,-59.28l-0.27,-4l-0.01,0.01l-0.02,0l0.3,3.99zm0,0l0.27,3.99l0.01,0l-0.28,-3.99zm157.19,141.26l1.02,-3.86l-0.01,0l-1.01,3.86zm30.21,14.53l-2.38,3.22l0.27,0.2l0.29,0.15l1.82,-3.57zm-65.28,-16.55l-0.57,-3.96l-0.34,0.04l-0.34,0.11l1.25,3.81zm-7.56,1.92l0.73,3.93l0,0l-0.73,-3.93zm-45.53,-14.47l2.62,-3.03l-0.01,0l-2.61,3.03zm-4.92,-3.94l-2.64,-3.01l-3.72,3.27l3.98,2.95l2.38,-3.21zm18.16,-12.26l-1.76,-3.59l0,0l1.76,3.59zm63.47,-5.64l0.22,-3.99l0,0l-0.22,3.99zm71.03,27.13l2.49,-3.13l0,-0.01l-2.49,3.14zm-5.92,39.6l2.62,-3.02l0,0l-2.62,3.02zm-146.73,-105.5l-2.64,-3.01l-3.71,3.27l3.97,2.95l2.38,-3.21zm7.47,-7.31l2.94,2.71l0,0l-2.94,-2.71zm8.84,16.78l1.62,-3.66l-0.01,0l-1.61,3.66zm59.07,7.48l0,4l0.01,0l-0.01,-4zm76.8,-21.59l2.07,3.42l0,0l-2.07,-3.42zm-5.14,-47.57l-2.34,-3.25l0,0l2.34,3.25zm-32.09,17.2l-1.41,-3.75l-0.33,0.12l-0.29,0.18l2.03,3.45zm-18.77,8.29l1.17,3.82l0,0l-1.17,-3.82zm-38.47,3.02l-0.97,3.88l0.2,0.05l0.21,0.03l0.56,-3.96zm-60.83,-28.61c-10.6,-7.69 -31.26,-19.29 -58.94,-17.92l0.39,7.99c25.19,-1.24 44.07,9.3 53.85,16.41l4.7,-6.48zm-54.19,39.72c25.31,-9.74 46.6,-26.52 54.48,-33.48l-5.29,-6c-7.54,6.66 -28,22.76 -52.06,32.01l2.87,7.47zm-6.01,2.59c2.34,-1.19 4.38,-2.01 5.92,-2.56l-2.69,-7.53c-1.79,0.64 -4.16,1.59 -6.86,2.97l3.63,7.12zm-26.78,41.61c0.44,-17.28 10.23,-33.46 26.73,-41.58l-3.53,-7.18c-19.23,9.47 -30.68,28.37 -31.19,48.55l7.99,0.21zm0.47,8.74c-0.39,-2.87 -0.54,-5.79 -0.47,-8.74l-7.99,-0.21c-0.09,3.36 0.08,6.71 0.53,10.02l7.93,-1.07zm-3.57,4.52c0.04,-0.01 0.08,-0.01 0.13,-0.02l-1.05,-7.93c-0.05,0 -0.09,0.01 -0.14,0.02l1.06,7.93zm7.76,12.69c-4.11,-7.01 -4.36,-13.72 -4.29,-16.57l-8,-0.18c-0.08,3.58 0.22,11.99 5.39,20.8l6.9,-4.05zm11.06,11.06c-2.45,-1.45 -7.39,-4.81 -11.06,-11.06l-6.9,4.05c4.63,7.87 10.82,12.08 13.9,13.9l4.06,-6.89zm6.03,3.47c-2.57,-1.29 -4.6,-2.53 -5.84,-3.36l-4.44,6.66c1.51,1.01 3.83,2.41 6.69,3.85l3.59,-7.15zm9.93,3.95c-3.64,-1.03 -6.92,-2.35 -9.84,-3.91l-3.76,7.06c3.45,1.84 7.26,3.37 11.42,4.55l2.18,-7.7zm1.7,0.46c-0.56,-0.14 -1.12,-0.29 -1.67,-0.45l-2.23,7.68c0.64,0.19 1.29,0.37 1.95,0.53l1.95,-7.76zm4.59,1.11c-1.68,-0.4 -3.2,-0.76 -4.59,-1.11l-1.95,7.76c1.45,0.36 3.03,0.74 4.69,1.13l1.85,-7.78zm52.44,18.88c-22.34,-11.74 -40.59,-16.07 -52.44,-18.88l-1.85,7.78c11.7,2.78 29.15,6.92 50.57,18.18l3.72,-7.08zm7.61,5.84c-2.46,-1.76 -4.76,-3.57 -6.9,-5.36l-5.14,6.13c2.28,1.91 4.74,3.84 7.39,5.74l4.65,-6.51zm-1.54,7.96c0.51,-0.48 1.14,-1.06 1.88,-1.72l-5.33,-5.97c-0.81,0.73 -1.49,1.36 -2.04,1.88l5.49,5.81zm-68.6,21.87c37.88,3.35 63.71,-17.72 68.44,-21.72l-5.16,-6.11c-4.3,3.63 -28,22.92 -62.57,19.86l-0.71,7.97zm-38.36,-12.29c10.02,5.86 22.86,10.92 38.36,12.29l0.71,-7.97c-14.15,-1.25 -25.85,-5.86 -35.03,-11.22l-4.04,6.9zm-36.76,-43.93c6.97,18.3 19.77,33.99 36.77,43.93l4.03,-6.91c-15.33,-8.96 -26.97,-23.17 -33.33,-39.87l-7.47,2.85zm-8.57,-44.39c0.28,17.71 4.14,32.76 8.57,44.39l7.47,-2.84c-4.16,-10.94 -7.78,-25.06 -8.04,-41.68l-8,0.13zm5.48,-39.49c-3.3,11.04 -5.73,24.36 -5.48,39.49l8,-0.13c-0.23,-14.19 2.04,-26.7 5.14,-37.07l-7.66,-2.29zm76.01,-62.13c-35.81,2.69 -65.75,27.89 -76.01,62.12l7.66,2.3c9.35,-31.21 36.6,-54.01 68.95,-56.45l-0.6,-7.97zm0.03,-0.01l0,0l0.54,7.99l0,0l-0.54,-7.99zm2.31,-0.14c-0.79,0.04 -1.57,0.09 -2.32,0.14l0.56,7.99c0.75,-0.06 1.47,-0.11 2.2,-0.15l-0.44,-7.98zm154.13,149.27c13.46,3.55 23.18,9.68 28.85,13.88l4.76,-6.43c-6.2,-4.59 -16.84,-11.3 -31.57,-15.18l-2.04,7.73zm-33.49,-1.94c7.09,-1.01 19.21,-1.82 33.49,1.94l2.03,-7.73c-15.62,-4.12 -28.89,-3.23 -36.65,-2.12l1.13,7.91zm-7.39,1.9c2.79,-0.52 5.48,-1.21 8.07,-2.05l-2.49,-7.61c-2.25,0.74 -4.6,1.34 -7.05,1.8l1.47,7.86zm-48.88,-15.38c8.46,7.34 26.43,19.55 48.88,15.38l-1.46,-7.86c-18.79,3.48 -34.28,-6.72 -42.18,-13.57l-5.24,6.05zm-4.68,-3.75c1.6,1.19 3.17,2.44 4.68,3.75l5.23,-6.05c-1.66,-1.44 -3.38,-2.82 -5.15,-4.13l-4.76,6.43zm18.78,-19.06c-6.95,3.41 -13.3,7.8 -19.04,12.84l5.28,6.01c5.27,-4.63 11.04,-8.6 17.29,-11.67l-3.53,-7.18zm65.45,-6.04c-13.13,-0.73 -25.51,-1.14 -36.51,-0.44c-10.97,0.7 -20.89,2.52 -28.94,6.48l3.53,7.18c6.68,-3.29 15.39,-5.01 25.92,-5.68c10.49,-0.67 22.47,-0.28 35.56,0.45l0.44,-7.99zm73.3,27.98c-10.27,-8.14 -36.01,-25.9 -73.3,-27.98l-0.44,7.99c34.95,1.95 59.12,18.61 68.77,26.26l4.97,-6.27zm3.26,6.77c0,-2.62 -1.18,-5.11 -3.26,-6.76l-4.97,6.26c0.14,0.12 0.23,0.29 0.23,0.5l8,0zm0,32.47l0,-32.47l-8,0l0,32.47l8,0zm-14.3,6.52c5.6,4.87 14.3,0.88 14.3,-6.52l-8,0c0,0.19 -0.05,0.29 -0.09,0.36c-0.06,0.08 -0.15,0.16 -0.28,0.22c-0.13,0.06 -0.26,0.08 -0.35,0.06c-0.08,0 -0.19,-0.03 -0.33,-0.16l-5.25,6.04zm-22.64,-15.24c9.8,4.98 17.45,10.74 22.65,15.25l5.24,-6.05c-5.57,-4.82 -13.76,-10.99 -24.26,-16.33l-3.63,7.13zm-118.81,-90.28c2.72,-2.39 5.31,-4.93 7.76,-7.6l-5.87,-5.42c-2.28,2.47 -4.67,4.82 -7.18,7.01l5.29,6.01zm15.27,2.81c-5.51,-2.42 -10.71,-5.45 -15.53,-9.02l-4.77,6.42c5.3,3.93 11.03,7.26 17.08,9.92l3.22,-7.32zm57.46,7.14c-25.34,0.03 -44.09,-1.25 -57.45,-7.14l-3.23,7.32c15.13,6.67 35.53,7.85 60.68,7.82l0,-8zm74.72,-21.01c-12.17,7.39 -38.71,20.96 -74.72,21.01l0.01,8c38.03,-0.06 66.02,-14.37 78.86,-22.17l-4.15,-6.84zm0.3,-0.54c0,0.23 -0.11,0.43 -0.31,0.55l4.16,6.83c2.58,-1.57 4.15,-4.36 4.15,-7.38l-8,0zm0,-39.85l0,39.85l8,0l0,-39.85l-8,0zm-1.02,-0.52c0.44,-0.32 1.02,0 1.02,0.52l8,0c0,-7.07 -7.99,-11.12 -13.7,-7.01l4.68,6.49zm-33.02,17.7c14.37,-5.42 25.52,-12.3 33.02,-17.7l-4.68,-6.49c-7.07,5.09 -17.59,11.59 -31.16,16.7l2.82,7.49zm-19.01,8.37c7.82,-2.4 14.37,-5.57 19.63,-8.67l-4.06,-6.89c-4.81,2.83 -10.79,5.72 -17.92,7.92l2.35,7.64zm-40.2,3.16c8.44,1.18 23.16,2.08 40.2,-3.16l-2.35,-7.64c-15.55,4.78 -29,3.96 -36.74,2.87l-1.11,7.93zm-46.74,15.14c12.39,-13.42 30.29,-19.23 46.33,-15.22l1.93,-7.77c-19.18,-4.79 -39.99,2.24 -54.14,17.57l5.88,5.42z" fill="black" id="svg_9"/>
   </g>
  </g>
 </g>
</svg>