<?xml version="1.0"?>
<svg width="105" height="40" xmlns="http://www.w3.org/2000/svg" xmlns:svg="http://www.w3.org/2000/svg">
 <g class="layer">
  <title>Layer 1</title>
  <path d="m0,31.03l0,-15.53l3.54,0l0,1.97c0.9,-1.59 2.84,-2.43 4.6,-2.43c2.04,0 3.82,0.93 4.65,2.75c1.22,-2.04 3.04,-2.75 5.05,-2.75c2.81,0 5.49,1.79 5.49,5.91l0,10.08l-3.58,0l0,-9.48c0,-1.81 -0.92,-3.19 -3,-3.19c-1.94,0 -3.22,1.53 -3.22,3.45l0,9.22l-3.64,0l0,-9.48c0,-1.78 -0.89,-3.18 -3,-3.18c-1.98,0 -3.22,1.47 -3.22,3.45l0,9.22l-3.67,-0.01z" fill="#333333" id="svg_1"/>
  <path d="m27.85,31.03l0,-23.1l3.71,0l0,23.1l-3.71,0z" fill="#333333" id="svg_2"/>
  <path d="m30.07,39.49c0.83,0.23 1.58,0.38 3.17,0.38c2.95,0 6.44,-1.67 7.35,-6.34l3.79,-18.74l5.63,0l0.68,-3.12l-5.68,0l0.76,-3.72c0.59,-2.89 2.19,-4.36 4.76,-4.36c0.67,0 0.48,0.06 1.07,0.17l0.83,-3.19c-0.8,-0.24 -1.51,-0.38 -3.05,-0.38c-1.63,-0.02 -3.23,0.5 -4.53,1.48c-1.44,1.12 -2.39,2.75 -2.83,4.87l-1.06,5.13l-5.04,0l-0.41,3.12l4.82,0l-3.47,17.33c-0.38,1.97 -1.5,4.32 -4.71,4.32c-0.73,0 -0.46,-0.06 -1.12,-0.17l-0.96,3.22z" fill="#0194E2" id="svg_3"/>
  <path d="m53.34,30.91l-3.7,0l5.07,-23.31l3.71,0l-5.08,23.31z" fill="#0194E2" id="svg_4"/>
  <path d="m71.81,16.48c-3.23,-2.26 -7.63,-1.82 -10.35,1.04c-2.71,2.86 -2.92,7.28 -0.49,10.38l2.43,-1.78c-1.21,-1.49 -1.45,-3.54 -0.63,-5.27c0.81,-1.74 2.55,-2.85 4.47,-2.87l0,1.89l4.57,-3.39z" fill="#43C9ED" id="svg_5"/>
  <path d="m62.62,29.47c3.23,2.26 7.63,1.82 10.34,-1.04c2.71,-2.86 2.92,-7.28 0.49,-10.39l-2.42,1.78c1.2,1.5 1.45,3.55 0.63,5.28c-0.82,1.74 -2.56,2.85 -4.48,2.87l0,-1.9l-4.56,3.4z" fill="#0194E2" id="svg_6"/>
  <path d="m78.09,15.49l4.05,0l0.82,10.62l5.76,-10.62l3.84,0.06l1.51,10.56l5.07,-10.62l3.7,0.06l-7.68,15.49l-3.7,0l-1.78,-11.11l-5.9,11.11l-3.84,0l-1.85,-15.55z" fill="#0194E2" id="svg_7"/>
 </g>
</svg>