<?xml version="1.0"?>
<svg width="300" height="300" xmlns="http://www.w3.org/2000/svg" xmlns:svg="http://www.w3.org/2000/svg" xmlns:xlink="http://www.w3.org/1999/xlink" enable-background="new 0 0 800 600" version="1.0" xml:space="preserve">
 <!-- Created with SVG-edit - https://github.com/SVG-Edit/svgedit-->
 <defs>
  <symbol height="296px" id="svg_9" preserveAspectRatio="xMidYMid" version="1.1" viewBox="0 0 256 296" width="256px" xmlns="http://www.w3.org/2000/svg" xmlns:xlink="http://www.w3.org/1999/xlink">
   <title>qdrant</title>
   <defs>
    <linearGradient id="svg_8" x1="81.5619048%" x2="-18.0857143%" y1="44.8421053%" y2="44.8421053%">
     <stop offset="0%" stop-color="#FF3364"/>
     <stop offset="100%" stop-color="#C91540" stop-opacity="0"/>
    </linearGradient>
   </defs>
   <g>
    <polygon fill="#24386C" points="201.31705 271.722427 195.422715 109.21267 184.747781 66.3682368 256 73.9112545 256 270.492509 212.474757 295.612626"/>
    <polygon fill="#7589BE" points="255.995151 73.8998107 212.469908 99.037384 122.649634 79.3346471 17.5160008 122.140288 1.1370484e-14 73.8998107 63.9883137 36.9499053 127.996024 0 191.986277 36.9499053"/>
    <polyline fill="#B2BFE8" points="0.00310340412 73.8998107 43.5283462 99.037384 68.7590217 174.073816 153.949405 242.236209 128.001067 295.599243 63.9933568 258.647398 0.00310340412 221.697492 0.00310340412 73.897871"/>
    <polyline fill="#24386C" points="156.856906 202.807459 128.001067 245.347371 128.001067 295.603122 168.946605 271.978458 190.043934 240.475027"/>
    <polygon fill="#7589BE" points="128.018523 195.107138 87.0555287 124.184656 95.8787005 100.678309 129.42068 84.4156955 168.946411 124.185819"/>
    <polyline fill="#B2BFE8" points="87.0555287 124.178837 128.001067 147.803501 128.001067 195.091621 90.131778 196.720927 67.2247763 167.471344 87.0555287 124.178856"/>
    <polygon fill="#24386C" points="128.001067 147.799621 168.946605 124.176897 196.813234 170.576668 163.090869 198.439418 128.001067 195.089293"/>
    <path d="m168.95,271.97l43.52,23.63l0,-196.56l-42.24,-24.38l-42.23,-24.38l-42.24,24.38l-42.23,24.38l0,97.54l42.23,24.38l42.24,24.39l40.95,-23.65l0,50.27zm0,-100.53l-40.95,23.65l-40.94,-23.65l0,-47.27l40.94,-23.64l40.95,23.64l0,47.27" fill="#DC244C"/>
    <polygon fill="url(#svg_8)" points="128.018523 245.362888 128.018523 195.099379 87.2863443 171.657041 87.2863443 221.837146"/>
   </g>
  </symbol>
 </defs>
 <g class="layer">
  <title>Layer 1</title>
  <use id="svg_11" transform="matrix(0.991916 0 0 0.991916 -6.98347 -1.78119)" x="28.94" xlink:href="#svg_9" y="5.55"/>
 </g>
</svg>